<?xml version="1.0" encoding="UTF-8"?>
<svg width="394px" height="50px" viewBox="0 0 394 50" version="1.1" xmlns="http://www.w3.org/2000/svg" xmlns:xlink="http://www.w3.org/1999/xlink">
    <title>LOGO+Slogan-英文</title>
    <defs>
        <polygon id="path-1" points="0.0002 0.0002 35.1932 0.0002 35.1932 50 0.0002 50"></polygon>
    </defs>
    <g id="登陆页" stroke="none" stroke-width="1" fill="none" fill-rule="evenodd">
        <g id="密码登录" transform="translate(-125.000000, -40.000000)">
            <g id="LOGO+Slogan-英文" transform="translate(125.000000, 40.000000)">
                <path d="M104.33945,43.707 C106.52145,43.19 108.10845,42.442 108.93995,41.4135 C109.79545,40.461 110.34945,39.527 110.51045,38.679 C110.74595,37.8185 110.85445,36.9115 110.92395,35.8345 L110.92395,35.0355 L106.85645,35.0355 L104.61595,35.08 L104.61595,33.095 L106.92295,33.155 L112.94445,33.155 C112.67345,32.5375 112.09295,31.985 111.41595,31.4235 C112.09295,31.224 112.83695,30.8635 113.58245,30.409 C113.82945,30.7175 114.23745,31.0855 114.62895,31.5295 C115.03745,32.0375 115.36295,32.436 115.60495,32.7405 C115.25545,32.857 114.98045,32.998 114.74795,33.155 L120.37395,33.155 L122.76245,33.095 L122.76245,35.08 L120.15845,35.0355 L113.58245,35.0355 C113.50445,35.593 113.44595,35.8805 113.44595,35.9905 L113.38345,36.85 L118.81645,36.85 L120.48795,36.85 L120.37395,38.478 C120.37395,40.0475 120.31645,41.1015 120.31645,41.717 C120.27445,42.378 120.20645,42.887 120.09545,43.3385 C120.03695,43.799 119.80995,44.161 119.42145,44.514 C119.08745,44.811 118.50695,45.1175 117.79595,45.3285 C117.06795,45.476 115.99395,45.6255 114.74795,45.738 C114.69045,45.527 114.62895,45.275 114.51295,44.968 C114.46395,44.675 114.35245,44.418 114.13945,44.161 L113.73745,43.5995 L115.53595,43.5995 C116.20345,43.5995 116.67145,43.45 116.95545,43.2465 C117.23145,43.0315 117.43995,42.827 117.50945,42.6375 C117.63195,42.442 117.67695,42.076 117.74245,41.5735 L117.79595,39.6845 L117.79595,38.6255 L113.18595,38.6255 C113.05195,38.9375 113.00995,39.238 112.88845,39.527 C112.83695,39.8495 112.60395,40.407 112.22445,41.223 C111.87795,42.0325 111.13745,42.827 109.96845,43.5995 C108.77745,44.362 107.48195,45.0245 106.13545,45.5615 C105.51095,44.811 105.05195,44.362 104.88045,44.1965 L104.33945,43.707 Z" id="Fill-1" fill="#FFFFFF"></path>
                <path d="M92.9664,43.3296 L81.2509,43.3296 L81.2509,40.3891 L81.8239,40.7896 C81.9354,40.8996 82.1424,41.2501 82.4864,41.8591 C82.5389,41.8166 82.5859,41.8166 82.6499,41.7631 C83.3749,41.4651 83.9364,41.1516 84.3424,40.8996 C84.7284,40.6401 85.0114,40.3471 85.3029,40.0401 C85.5319,39.7316 85.7579,39.2831 85.9744,38.7126 C86.1394,38.2126 86.3094,37.4461 86.3094,36.4296 C86.3539,35.4791 86.4219,34.6041 86.4219,33.8431 L87.9939,33.8431 L87.9939,40.2406 C87.9939,40.6946 88.3304,41.0441 88.9124,41.2501 C89.6359,41.4651 90.8314,41.5046 92.5164,41.4651 L92.6214,40.8996 C92.6214,40.6401 92.7299,40.1771 92.8959,39.4786 C92.3399,39.4786 91.8819,39.5221 91.4994,39.5221 C90.8624,39.5221 90.5414,39.4786 90.4214,39.4246 C90.3124,39.2831 90.2574,39.1626 90.2574,38.9721 L90.2574,33.8431 L92.9664,33.8431 L92.9664,43.3296 Z M81.2509,33.8431 L84.1159,33.8431 L84.0599,34.3551 L84.0599,35.6711 C84.0599,36.7361 83.9364,37.4986 83.7234,38.0511 C83.5644,38.5626 83.2704,39.0191 82.9849,39.3316 C82.9344,39.4246 82.8049,39.5221 82.6499,39.6311 C82.3804,39.8381 81.8649,40.0401 81.2509,40.2406 L81.2509,33.8431 Z M95.4954,32.0181 L93.7964,32.0591 L80.7494,32.0591 L78.7069,32.0181 L78.8219,33.8431 L78.8219,43.3781 L78.7069,45.3086 L81.2509,45.3086 L81.2509,45.1036 L92.9664,45.1036 L92.9664,45.3086 L95.4324,45.3086 L95.3714,43.6326 L95.4324,33.7921 L95.4954,32.0181 Z" id="Fill-3" fill="#FFFFFF"></path>
                <path d="M53.19245,33.91185 C53.47995,34.23035 53.80895,34.62685 54.13895,35.07935 C54.82595,34.62685 55.21845,34.31485 55.44895,34.23035 C55.56895,34.11385 55.72845,34.06685 55.95645,33.91185 C55.95645,33.91185 55.99695,33.91185 56.05745,33.87085 C56.11395,33.81235 56.18245,33.81235 56.28145,33.76585 C56.18245,33.66235 56.11395,33.60785 56.05745,33.50535 C55.99695,33.46185 55.95645,33.46185 55.95645,33.39635 C55.04695,32.48335 54.26195,31.73385 53.59445,31.08535 C52.90495,31.47685 52.40195,31.73385 52.18095,31.84235 C51.93745,31.93435 51.71545,32.03835 51.44145,32.13535 C52.34095,32.99885 52.90495,33.55535 53.19245,33.91185 L53.19245,33.91185 Z M63.84045,35.27385 L66.14245,35.27385 L66.14245,34.31485 L63.84045,34.31485 L63.84045,35.27385 Z M61.57645,37.81785 L59.20745,37.81785 L59.32395,36.85085 L61.57645,36.85085 L61.57645,37.81785 Z M57.07795,35.27435 L57.07795,36.45985 L56.91145,37.91785 L56.61145,39.44135 L58.18795,39.39885 L60.10945,39.39885 C59.55695,39.84935 58.99445,40.20085 58.42645,40.51035 C58.30845,40.56385 58.24945,40.59485 58.18795,40.59485 C57.63195,40.85585 56.95895,41.10135 56.05745,41.32135 C55.99695,41.32135 55.95645,41.32135 55.95645,41.37235 L55.83745,41.37235 L55.95645,41.46585 L56.05745,41.57185 L56.44895,41.92135 C56.61145,42.03385 56.91145,42.37885 57.40295,42.93285 C57.67945,42.82685 57.97595,42.67585 58.18795,42.58335 C58.76895,42.37885 59.27145,42.12985 59.64995,41.92135 C59.89545,41.76385 60.10945,41.66385 60.37545,41.52185 C60.79095,41.25085 61.17995,41.01785 61.57645,40.75985 L61.57645,41.76385 L61.51595,43.40185 L63.89745,43.40185 L63.84045,41.76385 L63.84045,39.39885 L66.87145,39.39885 L66.81395,39.94485 C66.81395,40.35285 66.71695,40.59485 66.52995,40.80735 C66.35995,40.96935 65.85845,41.05785 65.00295,41.05785 L64.78295,41.05785 L64.90295,41.22435 L65.00295,41.37235 L65.12945,41.66385 C65.28895,41.87785 65.40595,42.28935 65.63995,42.88685 C67.15145,42.73185 68.03045,42.48635 68.33845,42.17835 C68.65945,41.87785 68.83345,41.62835 68.88995,41.41335 C68.94495,41.17285 68.99345,40.96935 68.99345,40.70235 C69.05595,40.51035 69.05595,40.20085 69.10195,39.94485 L69.10195,39.29535 L69.17645,37.81785 L63.84045,37.81785 L63.84045,36.85085 L66.71695,36.85085 L68.39445,36.91235 L68.33845,35.64085 L68.33845,33.69835 L68.39445,32.69185 L66.75395,32.74185 L65.85845,32.74185 C66.30695,32.24185 66.75395,31.73385 67.21695,31.22335 C66.64495,31.12085 65.91595,30.86385 65.00295,30.55485 L65.00295,30.60835 L64.90295,30.76585 L64.61695,31.12085 C64.49895,31.42435 64.10245,31.84235 63.43445,32.33085 C63.76695,32.43735 64.16095,32.58435 64.49895,32.74185 L61.01595,32.74185 C61.29245,32.53685 61.63145,32.33085 61.96545,32.13535 C61.68745,31.87685 61.17995,31.42435 60.37545,30.81035 C60.33695,30.76585 60.23345,30.65935 60.16945,30.60835 C59.76745,30.81035 59.09545,31.08535 58.18795,31.47685 L58.18795,31.52935 C58.81245,31.93435 59.27145,32.33085 59.64995,32.74185 L58.18795,32.74185 L56.79295,32.69185 L56.79295,34.31485 L61.57645,34.31485 L61.57645,35.27435 L57.07795,35.27435 Z M66.24945,43.65535 C65.85845,43.65535 65.40595,43.65535 65.00295,43.70785 L64.90295,43.70785 C63.95495,43.70785 62.98345,43.74885 61.90495,43.74885 C61.35645,43.70785 60.84245,43.70785 60.37545,43.70785 C59.55695,43.65535 58.94145,43.59935 58.48095,43.49535 C58.36645,43.49535 58.30845,43.45085 58.18795,43.45085 C57.67945,43.34835 57.34545,43.24585 57.12945,43.09135 C56.84795,42.93285 56.61145,42.77935 56.34795,42.63735 C56.21595,42.53385 56.11395,42.48635 56.05745,42.44185 C55.99695,42.37885 55.95645,42.37885 55.95645,42.33435 C55.83745,42.33435 55.78145,42.28935 55.72845,42.22685 L55.72845,37.16085 L55.78145,35.99035 L50.77145,35.99035 L50.77145,37.76585 L53.35895,37.76585 L53.35895,42.12985 C52.34095,42.53385 51.71545,42.77935 51.49445,42.88685 C51.28195,42.93285 50.99145,43.03235 50.71645,43.09135 C51.04095,43.65535 51.28195,44.10835 51.44145,44.41785 C51.56445,44.66685 51.71545,45.02385 51.88945,45.37035 C52.28195,44.96885 52.68595,44.60685 53.02895,44.36135 C53.30645,44.10835 53.63245,43.90885 53.97495,43.79835 C54.26195,43.65535 54.54445,43.59935 54.70395,43.65535 C54.88595,43.65535 55.10045,43.79835 55.36945,44.05685 C55.56895,44.19635 55.72845,44.36135 55.95645,44.51385 C55.95645,44.51385 55.99695,44.55335 56.05745,44.55335 C56.11395,44.60685 56.21595,44.70385 56.34795,44.76585 C56.68395,44.96885 57.18645,45.11735 57.92345,45.27485 C57.97595,45.27485 58.08595,45.32835 58.18795,45.32835 C58.86645,45.42935 59.49495,45.47685 60.23345,45.47685 L69.23095,45.47685 L69.34795,44.91135 C69.39845,44.60685 69.57145,44.10835 69.86195,43.34835 C68.73345,43.45085 67.49545,43.54285 66.24945,43.65535 L66.24945,43.65535 Z" id="Fill-5" fill="#FFFFFF"></path>
                <path d="M65.08995,19.02805 L56.72895,19.02805 L65.08995,10.58805 L65.08995,19.02805 Z M70.78295,19.02805 L70.78295,5.48955 C70.78445,5.12155 70.66295,4.93955 70.22745,4.93455 L64.45345,4.93455 L50.55895,17.71455 L50.55895,23.80505 L65.08995,23.80505 L65.08995,27.26855 L70.78295,27.26855 L70.78295,23.80505 L73.25145,23.80505 L73.25145,19.02805 L70.78295,19.02805 Z" id="Fill-7" fill="#FFFFFF"></path>
                <path d="M97.65635,11.5442 C97.61685,10.5082 97.53785,9.6332 97.41685,8.9567 C97.25735,8.2787 97.01985,7.6817 96.70135,7.1647 C96.38235,6.6072 95.82485,6.0892 95.06885,5.6122 C94.31235,5.1747 93.23735,4.93556365 91.80385,4.93556365 L77.32935,4.93556365 C76.46485,4.9267 76.26685,5.3642 76.28835,5.9677 L76.2868195,27.2687 L81.69185,27.2687 L81.69185,10.6627 C81.68735,10.2677 81.83885,9.9952 82.33785,9.9917 L90.68935,9.9917 C91.52485,9.9917 92.12235,10.2307 92.48035,10.7472 C92.79885,11.2652 92.99835,12.0607 93.03835,13.1762 C93.07785,14.4502 92.91885,15.3657 92.56135,15.8442 C92.20185,16.3212 91.56435,16.5602 90.68935,16.5602 L83.86085,16.5602 L83.86085,21.5372 L91.84335,21.5372 C92.87935,21.5372 93.71435,21.4972 94.27185,21.3372 C94.86985,21.2187 95.42735,20.9397 95.90435,20.4612 C96.42235,20.0237 96.85935,19.3872 97.13835,18.5112 C97.45735,17.6742 97.61685,16.4412 97.65635,14.7687 C97.69585,13.6942 97.69585,12.6182 97.65635,11.5442" id="Fill-9" fill="#FFFFFF"></path>
                <g id="编组">
                    <mask id="mask-2" fill="white">
                        <use xlink:href="#path-1"></use>
                    </mask>
                    <g id="Clip-12"></g>
                    <polygon id="Fill-11" fill="#FFFFFF" mask="url(#mask-2)" points="14.8287 21.8672 35.1932 0.0002 0.0002 18.2947 20.3082 50.0002"></polygon>
                </g>
                <polygon id="Fill-13" fill="#FFFFFF" points="21.6378 5.71655 18.5898 1.06455 19.7193 6.71405"></polygon>
                <polygon id="Fill-15" fill="#FFFFFF" points="11.4669 38.38475 3.5654 44.43575 13.2769 41.20875"></polygon>
                <polygon id="Fill-17" fill="#FFFFFF" points="22.31845 19.72045 30.81595 19.72045 29.03345 17.00145 21.77495 17.00145"></polygon>
                <polygon id="Fill-19" fill="#FFFFFF" points="23.09775 23.62085 33.37075 23.62085 31.58875 20.90185 22.55425 20.90185"></polygon>
                <polygon id="Fill-21" fill="#FFFFFF" points="23.87755 27.52075 35.92705 27.52075 34.14355 24.80025 23.33355 24.80025"></polygon>
                <polygon id="Fill-23" fill="#FFFFFF" points="22.07185 15.82055 28.25985 15.82055 26.47685 13.10155 24.60385 13.10155"></polygon>
                <polygon id="Fill-25" fill="#FFFFFF" points="36.7003 28.70045 24.1138 28.70045 24.1123 28.70045 20.1058 31.76895 18.2378 33.19895 19.4018 39.17295 21.2183 38.57045 21.2183 38.56895 39.2418 32.57845"></polygon>
                <polygon id="Fill-27" fill="#FFFFFF" points="115.3741 15.64135 116.3821 14.09485 110.6611 14.09485 104.9406 14.09485 105.9481 15.64135 104.3646 18.06985 110.6611 18.06985 116.9576 18.06985"></polygon>
                <path d="M122.191,5.17575 C122.4135,4.73475 122.3135,4.52075 121.894,4.53775 L115.8915,4.53775 L113.702,7.86075 L120.4425,7.86075 L122.191,5.17575 Z" id="Fill-29" fill="#FFFFFF"></path>
                <polygon id="Fill-31" fill="#FFFFFF" points="117.69345 19.1997 110.93895 19.1997 113.54545 23.1747 120.28495 23.1747"></polygon>
                <path d="M122.8907,27.17455 L121.0207,24.30455 L114.2867,24.30455 L116.4407,27.58905 L122.6157,27.58905 C122.9597,27.60705 123.0517,27.46855 122.8907,27.17455" id="Fill-33" fill="#FFFFFF"></path>
                <polygon id="Fill-35" fill="#FFFFFF" points="104.20465 12.9653 110.66115 12.9653 117.11765 12.9653 119.70615 8.9903 112.95865 8.9903 110.66115 12.4778 108.36415 8.9903 101.61615 8.9903"></polygon>
                <path d="M100.87995,7.8606 L107.61995,7.8606 L105.43095,4.5376 L99.42845,4.5376 C99.00895,4.5211 98.90945,4.7346 99.13145,5.1756 L100.87995,7.8606 Z" id="Fill-37" fill="#FFFFFF"></path>
                <polygon id="Fill-39" fill="#FFFFFF" points="101.0377 23.1748 107.7772 23.1748 110.3832 19.1998 103.6292 19.1998"></polygon>
                <path d="M98.4317,27.17455 C98.2707,27.46855 98.3627,27.60705 98.7067,27.58905 L104.8817,27.58905 L107.0357,24.30455 L100.3017,24.30455 L98.4317,27.17455 Z" id="Fill-41" fill="#FFFFFF"></path>
                <g id="编组-4" transform="translate(154.298150, 11.189600)" fill="#FFFFFF">
                    <path d="M163.6629,15.28865 C163.4294,15.61765 163.1674,15.78165 162.8754,15.78165 C161.8849,15.67165 160.8939,15.61765 159.9024,15.61765 C157.7184,15.61765 156.2614,15.83665 155.5329,16.27415 C155.3294,16.41165 155.1549,16.46565 154.9789,16.46565 C154.7459,16.46565 154.5714,16.35665 154.4559,16.13615 C154.3094,15.97265 154.2224,15.75415 154.2224,15.50765 C154.2224,14.93265 154.4844,14.38515 155.0379,13.89315 C155.4744,13.48215 155.8549,13.29015 156.1739,13.29015 C156.4064,13.29015 156.6109,13.39965 156.7859,13.62015 C157.8054,13.48215 158.8549,13.39965 160.0204,13.39965 C161.5059,13.39965 162.6714,13.48215 163.5464,13.64665 C163.8654,13.72765 164.0409,13.94815 164.0409,14.30265 C164.0409,14.60365 163.9239,14.93265 163.6629,15.28865" id="Fill-43"></path>
                    <path d="M14.013,6.15925 C13.7795,6.43375 13.5475,6.56975 13.3145,6.56975 C13.169,6.56975 13.081,6.54225 12.9935,6.51575 C12.847,6.51575 12.7595,6.48775 12.6725,6.48775 C10.691,6.48775 8.2145,6.62375 5.2725,6.84325 C4.5435,9.00625 3.961,11.35975 3.5235,13.85225 C6.845,13.57775 9.2635,13.19475 10.8085,12.67475 C11.0125,12.59225 11.332,12.53675 11.886,12.34675 C12.643,12.34675 13.0225,12.70175 13.0225,13.41275 C13.0225,14.07075 12.5555,14.53525 11.5955,14.81025 C8.681,15.65825 5.884,16.09625 3.175,16.12475 C2.941,17.87575 2.854,19.54675 2.854,21.10675 C2.854,21.62625 2.883,22.25675 3.0005,23.10425 C3.086,23.95375 3.115,24.41925 3.115,24.52925 C3.115,24.77425 3.0005,25.02125 2.7665,25.23975 C2.475,25.45925 2.212,25.56825 1.9505,25.56825 C1.5705,25.56825 1.252,25.37725 0.9875,24.96625 C0.318,23.89925 4.52970994e-14,22.22825 4.52970994e-14,20.01075 C4.52970994e-14,19.76425 0.2025,19.51825 0.609,19.24425 C0.814,16.28775 1.0765,13.63325 1.6295,11.25175 C1.746,10.56575 2.097,9.25225 2.679,7.36375 C1.746,7.19925 1.281,6.76175 1.281,6.07675 C1.281,5.55725 1.5705,5.20075 2.184,4.98225 C2.475,4.89975 3.0005,4.81875 3.7565,4.73425 C3.9315,4.57125 4.1945,4.46175 4.5435,4.40675 C4.7475,4.48925 4.8645,4.48925 4.951,4.51575 C5.01,4.54475 5.068,4.54475 5.0975,4.54475 C5.184,4.54475 6.233,4.48925 8.331,4.35075 C10.4585,4.24225 11.7395,4.18825 12.177,4.18825 C13.6345,4.18825 14.362,4.59825 14.362,5.39275 C14.362,5.63975 14.245,5.88475 14.013,6.15925" id="Fill-45"></path>
                    <path d="M21.3738,16.5621 C20.9373,16.5621 20.5578,16.4801 20.2378,16.3436 C19.4228,16.3436 18.7513,16.7811 18.2263,17.6571 C17.7893,18.4241 17.5568,19.2446 17.5568,20.1211 C17.5568,20.8061 17.7328,21.4081 18.1113,21.8726 C18.4598,22.3936 18.9268,22.6391 19.5093,22.6391 C20.2088,22.6391 20.8488,22.2286 21.4033,21.4346 C21.9578,20.5866 22.2178,19.7106 22.2178,18.8346 C22.2178,17.6846 21.9283,16.9181 21.3738,16.5621 M23.0928,23.0506 C22.1328,24.2821 20.9373,24.9111 19.5378,24.9111 C18.3148,24.9111 17.2953,24.4471 16.4793,23.5436 C15.6913,22.6946 15.2843,21.5446 15.2843,20.1211 C15.2843,18.8886 15.5758,17.7931 16.1288,16.7811 C16.7123,15.6321 17.4998,14.8101 18.5188,14.3446 C18.7513,14.2626 19.0438,14.0981 19.4798,13.8796 C19.8588,13.6326 20.1203,13.5236 20.3238,13.5236 C20.4128,13.5236 20.5873,13.6056 21.0248,13.7151 C22.0448,14.0431 22.8888,14.6451 23.5598,15.4941 C24.1998,16.3706 24.5213,17.3286 24.5213,18.3956 C24.5213,20.2311 24.0548,21.7911 23.0928,23.0506" id="Fill-47"></path>
                    <path d="M36.28105,14.399 C35.72805,14.7005 35.20355,14.8375 34.70855,14.8375 C34.67855,14.8375 34.50405,14.782 34.15405,14.6735 C31.79405,15.768 30.33805,17.985 29.81355,21.3255 C29.66705,22.2025 29.55055,22.7755 29.46355,23.05 C29.28855,23.543 29.02605,23.789 28.64705,23.789 C28.29805,23.789 27.97805,23.6245 27.65655,23.2695 C27.39555,22.968 27.24905,22.5575 27.24905,22.065 C27.24905,21.9825 27.27805,21.6265 27.48155,20.997 C27.62755,20.3665 27.71405,19.6835 27.71405,18.972 C27.71405,18.3145 27.62755,17.438 27.51055,16.37 C26.98705,15.686 26.72455,14.7555 26.72455,13.523 C26.72455,13.25 26.81155,12.976 26.98705,12.7305 C27.13205,12.483 27.33705,12.347 27.57005,12.347 C28.12255,12.347 28.56105,12.62 28.88105,13.1945 C29.11305,13.6875 29.31705,14.509 29.49305,15.659 C31.27005,13.1405 33.28055,11.881 35.58255,11.881 C35.96205,11.881 36.31105,12.0445 36.66105,12.374 C36.98005,12.7305 37.15455,13.0855 37.15455,13.4415 C37.15455,13.797 36.86505,14.0975 36.28105,14.399" id="Fill-49"></path>
                    <path d="M56.98805,6.296 C56.75605,6.078 56.49355,5.967 56.17205,5.967 C54.86055,5.967 53.02455,6.9535 50.60755,8.8965 C50.49055,9.6365 50.31455,11.4975 50.05305,14.536 C51.68555,13.7435 53.22805,12.73 54.68605,11.4425 C56.46355,9.8275 57.33805,8.321 57.33805,6.9535 C57.33805,6.7065 57.22105,6.4875 56.98805,6.296 M55.96805,13.3595 C53.57905,15.5485 51.53855,16.7275 49.84905,16.8905 C49.84905,17.192 49.84905,17.6575 49.87855,18.396 L49.87855,19.655 C49.99555,19.903 50.08255,20.203 50.14105,20.5045 L50.14105,21.3525 C50.14105,21.763 50.22905,22.5565 50.46155,23.7625 C50.31455,24.5005 49.93605,24.884 49.35405,24.884 C48.74255,24.884 48.30505,24.3095 48.07205,23.1315 C47.75105,21.6265 47.60505,20.2315 47.60505,18.917 C47.60505,17.0555 47.78105,14.4265 48.13005,11.0595 C47.43155,10.841 47.08155,10.403 47.08155,9.773 C47.08155,9.3355 47.51805,8.7045 48.39155,7.884 C51.42255,5.036 54.07405,3.6135 56.31805,3.6135 C57.27905,3.6135 58.06505,3.9685 58.73605,4.7085 C59.34755,5.4485 59.66905,6.3225 59.66905,7.3085 C59.66905,9.088 58.44405,11.086 55.96805,13.3595" id="Fill-51"></path>
                    <path d="M68.4866,14.15315 C68.2236,13.96215 67.9916,13.85115 67.7871,13.85115 C67.2606,13.85115 66.8541,14.26315 66.5631,15.08365 C66.3006,15.71415 66.1556,16.42515 66.1556,17.21915 L66.1556,17.73865 C67.9026,16.64365 68.7766,15.65865 68.7766,14.78265 C68.7766,14.59015 68.6901,14.39915 68.4866,14.15315 M69.4766,23.40665 C67.2606,23.40665 65.6306,22.47465 64.5811,20.58615 L63.7071,20.58615 C62.9501,20.58615 62.1921,20.45015 61.4646,20.14765 C60.5016,19.79265 60.0071,19.29965 60.0071,18.67065 C60.0071,17.90415 60.3861,17.52015 61.1436,17.52015 C61.3176,17.52015 61.6091,17.65615 62.0171,17.93065 C62.4251,18.20515 62.8326,18.34215 63.2121,18.34215 L63.8821,18.34215 C63.7946,17.87565 63.7656,17.52015 63.7656,17.21915 C63.7656,15.90415 64.1151,14.67365 64.8151,13.52315 C65.6601,12.18215 66.6781,11.52415 67.9026,11.52415 C68.6036,11.52415 69.3021,11.85365 70.0296,12.48315 C70.7291,13.14065 71.0791,13.85115 71.0791,14.64515 C71.0791,16.69965 69.6216,18.45165 66.7081,19.92915 C67.4091,20.72315 68.1946,21.10615 69.0391,21.10615 C69.2731,21.10615 69.6511,21.07965 70.1466,20.99665 C70.6421,20.91415 71.0211,20.88715 71.2536,20.88715 C71.5451,20.88715 71.8071,20.99665 72.0696,21.24415 C72.3021,21.51665 72.4186,21.79065 72.4186,22.06465 C72.4186,22.96815 71.4301,23.40665 69.4766,23.40665" id="Fill-53"></path>
                    <path d="M83.33475,14.399 C82.78075,14.7005 82.25775,14.8375 81.76175,14.8375 C81.73225,14.8375 81.55775,14.782 81.20925,14.6735 C78.84825,15.768 77.39175,17.985 76.86675,21.3255 C76.72075,22.2025 76.60475,22.7755 76.51725,23.05 C76.34275,23.543 76.08075,23.789 75.70125,23.789 C75.35175,23.789 75.03175,23.6245 74.71075,23.2695 C74.44925,22.968 74.30275,22.5575 74.30275,22.065 C74.30275,21.9825 74.33175,21.6265 74.53575,20.997 C74.68075,20.3665 74.76825,19.6835 74.76825,18.972 C74.76825,18.3145 74.68075,17.438 74.56625,16.37 C74.04075,15.686 73.77825,14.7555 73.77825,13.523 C73.77825,13.25 73.86625,12.976 74.04075,12.7305 C74.18625,12.483 74.38975,12.347 74.62325,12.347 C75.17625,12.347 75.61425,12.62 75.93475,13.1945 C76.16675,13.6875 76.37075,14.509 76.54625,15.659 C78.32325,13.1405 80.33425,11.881 82.63625,11.881 C83.01425,11.881 83.36425,12.0445 83.71375,12.374 C84.03325,12.7305 84.20825,13.0855 84.20825,13.4415 C84.20825,13.797 83.91825,14.0975 83.33475,14.399" id="Fill-55"></path>
                    <path d="M96.49395,2.9293 C94.54095,3.2843 93.08495,4.1063 92.18145,5.4468 C90.69595,7.6653 89.70545,10.9768 89.23945,15.3858 C90.60745,15.0563 92.18145,14.7558 94.16295,14.4533 C95.09495,14.3173 95.67745,14.2353 95.99845,14.2353 C96.81495,14.2353 97.22295,14.6183 97.22295,15.3583 C97.22295,15.7678 97.01895,16.1243 96.63895,16.3978 C96.28995,16.6723 95.88195,16.8083 95.41645,16.8083 C95.24045,16.8083 95.06545,16.7798 94.89045,16.7268 C93.52245,16.9458 91.62745,17.3283 88.97695,17.8768 C88.80245,20.7503 88.59745,22.9958 88.36495,24.6103 C87.95695,27.6498 87.43195,29.7568 86.76245,30.9628 C86.20945,31.9193 85.71395,32.4128 85.27595,32.4128 C84.89695,32.4128 84.57745,32.2748 84.28495,32.0023 C84.02345,31.7283 83.87795,31.3728 83.87795,30.9628 C83.87795,30.5513 84.10995,30.1673 84.60545,29.7568 C85.39345,29.0998 86.06295,25.3503 86.61595,18.5063 C86.14995,18.6148 85.65495,18.6433 85.10045,18.6433 C84.83895,18.6433 84.57745,18.5063 84.37395,18.2598 C84.16995,18.0398 84.05095,17.7668 84.05095,17.4658 C84.05095,16.7268 84.34295,16.3438 84.95595,16.3438 C85.53795,16.3438 86.17945,16.2343 86.84895,16.0143 C87.14045,12.9198 87.57845,10.4573 88.16095,8.5668 C89.03445,5.7753 90.34545,3.6963 92.12245,2.2993 C92.56045,1.9433 93.20145,1.5878 94.07545,1.2043 C94.92095,0.8218 95.56095,0.6288 96.02745,0.6288 C96.98845,0.6288 97.45495,0.9308 97.45495,1.5318 C97.45495,2.3543 97.13345,2.8203 96.49395,2.9293" id="Fill-57"></path>
                    <path d="M104.7571,14.15315 C104.4961,13.96215 104.2626,13.85115 104.0586,13.85115 C103.5331,13.85115 103.1256,14.26315 102.8351,15.08365 C102.5726,15.71415 102.4261,16.42515 102.4261,17.21915 L102.4261,17.73865 C104.1746,16.64365 105.0481,15.65865 105.0481,14.78265 C105.0481,14.59015 104.9611,14.39915 104.7571,14.15315 M105.7491,23.40665 C103.5331,23.40665 101.9031,22.47465 100.8531,20.58615 L99.9791,20.58615 C99.2226,20.58615 98.4641,20.45015 97.7356,20.14765 C96.7746,19.79265 96.2791,19.29965 96.2791,18.67065 C96.2791,17.90415 96.6581,17.52015 97.4141,17.52015 C97.5906,17.52015 97.8801,17.65615 98.2891,17.93065 C98.6966,18.20515 99.1051,18.34215 99.4831,18.34215 L100.1541,18.34215 C100.0666,17.87565 100.0376,17.52015 100.0376,17.21915 C100.0376,15.90415 100.3871,14.67365 101.0871,13.52315 C101.9311,12.18215 102.9516,11.52415 104.1746,11.52415 C104.8741,11.52415 105.5731,11.85365 106.3016,12.48315 C107.0016,13.14065 107.3501,13.85115 107.3501,14.64515 C107.3501,16.69965 105.8941,18.45165 102.9801,19.92915 C103.6801,20.72315 104.4666,21.10615 105.3121,21.10615 C105.5441,21.10615 105.9226,21.07965 106.4186,20.99665 C106.9141,20.91415 107.2921,20.88715 107.5246,20.88715 C107.8181,20.88715 108.0791,20.99665 108.3421,21.24415 C108.5746,21.51665 108.6901,21.79065 108.6901,22.06465 C108.6901,22.96815 107.7011,23.40665 105.7491,23.40665" id="Fill-59"></path>
                    <path d="M117.30495,21.73595 C116.19695,22.55645 115.08945,22.96695 113.95395,22.96695 C112.70145,22.96695 111.68095,22.58445 110.89395,21.84495 C110.07895,21.10695 109.67045,20.14795 109.67045,18.91695 C109.67045,17.19095 110.22445,15.63195 111.36045,14.23495 C112.75845,12.45545 114.39095,11.55195 116.22745,11.55195 C116.66495,11.55195 117.07045,11.68995 117.44995,11.93495 C117.79995,12.20945 117.97445,12.56445 117.97445,12.97595 C117.97445,13.27745 117.79995,13.60495 117.48045,13.90695 C117.10095,14.26245 116.72145,14.42595 116.34395,14.42595 C115.58495,14.42595 115.06045,14.31645 114.73995,14.12645 C113.95395,14.59095 113.31295,15.24845 112.78895,16.09645 C112.26445,16.97245 112.00195,17.82045 112.00195,18.64245 C112.00195,20.01195 112.58495,20.69645 113.72145,20.69645 C114.47845,20.69645 115.08945,20.50445 115.55645,20.14795 C115.87645,19.84695 116.19695,19.62845 116.54695,19.32695 C116.98395,18.97095 117.30495,18.77895 117.53745,18.77895 C117.82945,18.77895 118.09095,18.91695 118.32445,19.19145 C118.55895,19.40845 118.67345,19.68345 118.67345,19.98345 C118.67345,20.50445 118.20795,21.07895 117.30495,21.73595" id="Fill-61"></path>
                    <path d="M129.23955,14.8099 C129.00655,15.0844 128.74355,15.2204 128.48155,15.2204 C128.04555,15.2204 127.69505,15.0844 127.40455,14.8369 C127.20055,14.8369 126.70505,14.8369 125.91705,14.8099 C125.10255,14.8099 124.57705,14.7834 124.25755,14.7834 C123.70355,16.9459 123.41205,18.2324 123.29505,18.7519 C122.97505,20.2849 122.82855,21.6804 122.74255,22.8869 C123.00405,23.1054 123.14905,23.4329 123.14905,23.8434 C123.14905,24.0909 123.03255,24.3364 122.77055,24.6109 C122.47905,24.8294 122.18755,24.9399 121.92605,24.9399 C120.96505,24.9399 120.46905,24.2004 120.46905,22.6944 C120.46905,21.8454 120.61455,20.5594 121.05105,18.7794 L121.92605,14.8369 C121.02255,14.8369 120.55705,14.4539 120.55705,13.6594 C120.55705,13.1664 120.73055,12.8389 121.08155,12.6744 C121.31355,12.5644 121.75055,12.4824 122.45055,12.4824 C123.23655,9.5544 123.81955,7.3354 124.37455,5.6939 C124.54805,5.1194 124.89705,4.8179 125.42305,4.8179 C126.15155,4.8179 126.58855,5.2284 126.70505,6.0504 C126.50055,6.6244 126.26805,7.2819 126.03505,8.0489 C125.68505,9.1979 125.30655,10.6494 124.89705,12.4284 C125.10255,12.4284 125.80105,12.4554 127.05355,12.4824 C128.71505,12.5644 129.56005,13.0579 129.56005,13.9074 C129.56005,14.2084 129.44355,14.5089 129.23955,14.8099" id="Fill-63"></path>
                    <path d="M154.8997,6.1317 C152.1322,8.2122 149.6252,10.4842 147.2942,13.0862 C148.4897,15.3857 149.6837,17.5197 150.8502,19.6822 C151.2572,19.8747 151.5487,20.1207 151.7227,20.4767 C152.1607,21.5987 152.3937,22.3382 152.3937,22.7217 C152.3937,23.0512 152.2772,23.3237 152.0447,23.5422 C151.7227,23.7892 151.4322,23.8987 151.1692,23.8987 C150.6737,23.8987 150.2667,23.6522 150.0042,23.1317 C148.7227,20.8327 147.2367,18.1222 145.6042,15.0292 C144.5847,16.3157 143.6812,17.5482 142.9537,18.6702 C142.8377,18.9982 142.7197,19.3552 142.5157,19.7922 C142.0787,20.5322 141.4972,21.6807 140.5932,23.2972 C140.3022,23.8717 139.9227,24.1732 139.4287,24.1732 C139.1367,24.1732 138.8747,24.0352 138.6402,23.7892 C138.4082,23.5422 138.2917,23.2677 138.2917,22.9672 C138.2917,22.6392 138.4957,22.0647 138.9032,21.2442 C140.2727,18.4232 142.1092,15.6307 144.4397,12.8657 C143.5352,11.2242 142.5157,9.1977 141.2642,6.7892 C140.6512,5.6672 140.3602,4.9547 140.3602,4.6537 C140.3602,4.3792 140.4767,4.1332 140.7097,3.9152 C140.9727,3.6677 141.2052,3.5587 141.4382,3.5587 C141.9927,3.5587 142.3992,3.7772 142.6617,4.2427 L146.1597,10.9222 C147.5572,9.4172 149.1307,7.9117 150.9082,6.4062 C152.7732,4.7627 153.9097,3.9422 154.3182,3.9422 C154.6367,3.9422 154.9582,4.0512 155.2202,4.2697 C155.4527,4.4897 155.5692,4.7362 155.5692,5.0367 C155.5692,5.4467 155.3367,5.8032 154.8997,6.1317" id="Fill-65"></path>
                    <path d="M176.2068,16.3155 C175.7393,16.3155 175.0713,16.6715 174.2253,17.3565 C173.3218,18.0395 172.5933,18.806 172.0408,19.6005 C171.3703,20.45 171.0498,21.079 171.0498,21.462 L171.0498,22.1745 C171.8373,21.9555 172.4768,21.7095 173.1478,21.2985 C175.9753,19.7385 177.3718,18.369 177.3718,17.1915 C177.3718,16.6165 176.9938,16.3155 176.2068,16.3155 M175.9753,22.256 C173.6133,23.8705 171.6033,24.6925 169.8848,24.6925 C168.7773,24.6925 168.1363,24.2545 167.9613,23.379 C168.0198,22.914 168.2808,22.5305 168.7478,22.256 C168.6308,21.271 168.5728,20.1755 168.5728,18.9445 C168.5728,12.92 169.3013,7.446 170.8173,2.272 C171.2238,0.7665 171.7193,-5.86197757e-14 172.3023,-5.86197757e-14 C173.1478,-5.86197757e-14 173.5543,0.4925 173.5543,1.4785 C173.5543,2.162 173.3518,3.2575 172.9438,4.736 C172.8558,5.037 172.6218,5.2825 172.2738,5.4475 C171.6608,8.513 171.2238,12.3735 170.9058,17.219 C172.8558,15.002 174.6623,13.9075 176.3518,13.9075 C177.2838,13.9075 178.0713,14.235 178.7128,14.864 C179.3548,15.468 179.6738,16.2345 179.6738,17.137 C179.6738,18.806 178.4493,20.532 175.9753,22.256" id="Fill-67"></path>
                    <path d="M187.26885,16.5621 C186.83085,16.5621 186.45285,16.4801 186.13185,16.3436 C185.31635,16.3436 184.64535,16.7811 184.12085,17.6571 C183.68435,18.4241 183.45135,19.2446 183.45135,20.1211 C183.45135,20.8061 183.62685,21.4081 184.00535,21.8726 C184.35535,22.3936 184.82085,22.6391 185.40435,22.6391 C186.10235,22.6391 186.74335,22.2286 187.29785,21.4346 C187.85035,20.5866 188.11235,19.7106 188.11235,18.8346 C188.11235,17.6846 187.82185,16.9181 187.26885,16.5621 M188.98785,23.0506 C188.02685,24.2821 186.83085,24.9111 185.43285,24.9111 C184.20835,24.9111 183.18835,24.4471 182.37385,23.5436 C181.58685,22.6946 181.17835,21.5446 181.17835,20.1211 C181.17835,18.8886 181.46985,17.7931 182.02385,16.7811 C182.60635,15.6321 183.39435,14.8101 184.41285,14.3446 C184.64535,14.2626 184.93735,14.0981 185.37485,13.8796 C185.75335,13.6326 186.01485,13.5236 186.21985,13.5236 C186.30785,13.5236 186.48185,13.6056 186.91835,13.7151 C187.93885,14.0431 188.78335,14.6451 189.45435,15.4941 C190.09385,16.3706 190.41585,17.3286 190.41585,18.3956 C190.41585,20.2311 189.94885,21.7911 188.98785,23.0506" id="Fill-69"></path>
                    <path d="M202.1751,14.399 C201.6221,14.7005 201.0976,14.8375 200.6021,14.8375 C200.5731,14.8375 200.3976,14.782 200.0496,14.6735 C197.6876,15.768 196.2306,17.985 195.7076,21.3255 C195.5611,22.2025 195.4441,22.7755 195.3561,23.05 C195.1831,23.543 194.9206,23.789 194.5411,23.789 C194.1911,23.789 193.8721,23.6245 193.5516,23.2695 C193.2896,22.968 193.1436,22.5575 193.1436,22.065 C193.1436,21.9825 193.1721,21.6265 193.3756,20.997 C193.5216,20.3665 193.6091,19.6835 193.6091,18.972 C193.6091,18.3145 193.5216,17.438 193.4051,16.37 C192.8816,15.686 192.6191,14.7555 192.6191,13.523 C192.6191,13.25 192.7066,12.976 192.8816,12.7305 C193.0256,12.483 193.2296,12.347 193.4621,12.347 C194.0171,12.347 194.4541,12.62 194.7761,13.1945 C195.0081,13.6875 195.2111,14.509 195.3861,15.659 C197.1636,13.1405 199.1736,11.881 201.4761,11.881 C201.8541,11.881 202.2046,12.0445 202.5546,12.374 C202.8746,12.7305 203.0486,13.0855 203.0486,13.4415 C203.0486,13.797 202.7586,14.0975 202.1751,14.399" id="Fill-71"></path>
                    <path d="M208.66045,16.1241 L208.51545,16.1241 C208.48595,16.1241 208.48595,16.1241 208.45645,16.0976 C207.99095,16.0976 207.11695,16.8911 205.86395,18.5056 C205.13495,19.4366 204.75645,20.2856 204.75645,21.0521 C204.75645,21.7351 205.01945,22.0646 205.54395,22.0646 C206.15545,22.0646 206.76745,21.7351 207.43745,21.1061 C207.99095,20.5861 208.42695,19.9836 208.77795,19.2991 C208.98245,18.8891 209.15545,18.3426 209.47645,17.6031 C209.15545,17.3826 208.86545,16.8911 208.66045,16.1241 M213.55545,5.3381 C213.20595,7.3921 213.06095,8.6771 213.06095,9.3076 C213.06095,10.2661 212.88545,10.8951 212.53645,11.1696 C212.33245,13.7696 212.30395,15.7681 212.30395,17.3011 C212.30395,20.1471 212.47795,22.5016 212.82845,24.3921 C212.94495,25.1586 213.03195,25.5966 213.03195,25.7061 C213.03195,25.9796 212.91595,26.2261 212.68195,26.4441 C212.41945,26.6646 212.15745,26.7736 211.89595,26.7736 C211.31245,26.7736 210.96245,26.4171 210.84695,25.6786 C210.72945,25.0756 210.52495,23.5716 210.23495,21.1616 C209.79795,21.9551 209.24295,22.6951 208.34095,23.3511 C207.40845,24.0626 206.56245,24.4196 205.77695,24.4196 C204.75645,24.4196 203.97045,24.1176 203.41645,23.5161 C202.86245,22.9406 202.59945,22.1466 202.59945,21.1341 C202.59945,19.7926 203.29945,18.2051 204.69745,16.3986 C206.06745,14.6186 207.37895,13.7156 208.57345,13.7156 C208.98245,13.7156 209.50645,13.9611 210.14695,14.4821 C210.46745,9.3631 210.96245,5.6116 211.66145,2.9841 C211.80895,2.4081 212.18595,2.1076 212.73945,2.1076 C213.43895,2.1076 213.78945,2.4911 213.78945,3.2291 C213.78945,3.6396 213.70295,4.3511 213.55545,5.3381" id="Fill-73"></path>
                    <path d="M222.92655,14.15315 C222.66505,13.96215 222.43255,13.85115 222.22855,13.85115 C221.70405,13.85115 221.29555,14.26315 221.00405,15.08365 C220.74155,15.71415 220.59755,16.42515 220.59755,17.21915 L220.59755,17.73865 C222.34455,16.64365 223.21805,15.65865 223.21805,14.78265 C223.21805,14.59015 223.13055,14.39915 222.92655,14.15315 M223.91755,23.40665 C221.70405,23.40665 220.07155,22.47465 219.02255,20.58615 L218.14905,20.58615 C217.39155,20.58615 216.63355,20.45015 215.90505,20.14765 C214.94405,19.79265 214.44805,19.29965 214.44805,18.67065 C214.44805,17.90415 214.82755,17.52015 215.58405,17.52015 C215.76005,17.52015 216.05005,17.65615 216.45905,17.93065 C216.86655,18.20515 217.27555,18.34215 217.65305,18.34215 L218.32405,18.34215 C218.23655,17.87565 218.20705,17.52015 218.20705,17.21915 C218.20705,15.90415 218.55705,14.67365 219.25705,13.52315 C220.10055,12.18215 221.12105,11.52415 222.34455,11.52415 C223.04305,11.52415 223.74255,11.85365 224.47105,12.48315 C225.17055,13.14065 225.52105,13.85115 225.52105,14.64515 C225.52105,16.69965 224.06305,18.45165 221.14905,19.92915 C221.84955,20.72315 222.63605,21.10615 223.48155,21.10615 C223.71405,21.10615 224.09205,21.07965 224.59005,20.99665 C225.08305,20.91415 225.46205,20.88715 225.69555,20.88715 C225.98755,20.88715 226.24855,20.99665 226.51105,21.24415 C226.74455,21.51665 226.86005,21.79065 226.86005,22.06465 C226.86005,22.96815 225.87105,23.40665 223.91755,23.40665" id="Fill-75"></path>
                    <path d="M237.77665,14.399 C237.22215,14.7005 236.69865,14.8375 236.20315,14.8375 C236.17265,14.8375 235.99915,14.782 235.65015,14.6735 C233.28815,15.768 231.83215,17.985 231.30765,21.3255 C231.16165,22.2025 231.04365,22.7755 230.95765,23.05 C230.78365,23.543 230.52065,23.789 230.14215,23.789 C229.79215,23.789 229.47165,23.6245 229.15165,23.2695 C228.89015,22.968 228.74515,22.5575 228.74515,22.065 C228.74515,21.9825 228.77265,21.6265 228.97715,20.997 C229.12215,20.3665 229.20965,19.6835 229.20965,18.972 C229.20965,18.3145 229.12215,17.438 229.00615,16.37 C228.48015,15.686 228.21865,14.7555 228.21865,13.523 C228.21865,13.25 228.30615,12.976 228.48015,12.7305 C228.62715,12.483 228.83115,12.347 229.06365,12.347 C229.61865,12.347 230.05515,12.62 230.37565,13.1945 C230.60815,13.6875 230.81165,14.509 230.98765,15.659 C232.76515,13.1405 234.77465,11.881 237.07665,11.881 C237.45465,11.881 237.80515,12.0445 238.15465,12.374 C238.47465,12.7305 238.65015,13.0855 238.65015,13.4415 C238.65015,13.797 238.35815,14.0975 237.77665,14.399" id="Fill-77"></path>
                </g>
            </g>
        </g>
    </g>
</svg>