<?xml version="1.0" encoding="UTF-8"?>
<svg width="279px" height="234px" viewBox="0 0 279 234" version="1.1" xmlns="http://www.w3.org/2000/svg" xmlns:xlink="http://www.w3.org/1999/xlink">
    <title>编组 3</title>
    <g id="-" stroke="none" stroke-width="1" fill="none" fill-rule="evenodd">
        <g id="缺省页" transform="translate(-516.000000, -2147.000000)">
            <g id="编组-3" transform="translate(516.000000, 2147.000000)">
                <polygon id="矩形" fill="#ADB6BF" points="38.4583333 108 174.541667 108 213 156 0 156"></polygon>
                <rect id="矩形" fill="#F9F9F9" x="36" y="33" width="138" height="147" rx="6"></rect>
                <rect id="矩形" fill="#DCE0E6" x="57" y="54" width="96" height="54" rx="6"></rect>
                <rect id="矩形备份" fill="#DCE0E6" x="57" y="123" width="96" height="9" rx="4.5"></rect>
                <rect id="矩形备份-2" fill="#DCE0E6" x="57" y="144" width="96" height="9" rx="4.5"></rect>
                <path d="M213,156 L213,222 C213,228.627417 207.627417,234 201,234 L12,234 C5.372583,234 0,228.627417 0,222 L0,156 L54.9252778,156 C58.9431329,156 62.4743146,158.663187 63.5786463,162.526296 L64.1349972,164.47249 L64.1349972,164.47249 C65.1887374,168.160581 68.454362,170.755358 72.2439595,170.983626 L72.7887127,171 L143.211287,171 C147.046959,171 150.439036,168.572864 151.699604,164.991785 L151.865003,164.47249 L152.419856,162.529129 C153.523223,158.664608 157.055086,156 161.074034,156 L213,156 L213,156 Z" id="路径" fill="#DCE0E6"></path>
                <g id="编组-2" transform="translate(201.000000, 0.000000)" fill="#DCE0E6">
                    <path d="M39,0 C60.5391052,0 78,14.7746033 78,33 C78,51.2253967 60.5391052,66 39,66 C27.8615772,66 17.8137449,62.048992 10.7071833,55.7129361 L0,57 L2.52603644,44.7085382 C0.893663704,41.0697171 0,37.1231658 0,33 C0,14.7746033 17.4608948,0 39,0 Z M21,27 C17.6862915,27 15,29.6862915 15,33 C15,36.3137085 17.6862915,39 21,39 C24.3137085,39 27,36.3137085 27,33 C27,29.6862915 24.3137085,27 21,27 Z M39,27 C35.6862915,27 33,29.6862915 33,33 C33,36.3137085 35.6862915,39 39,39 C42.3137085,39 45,36.3137085 45,33 C45,29.6862915 42.3137085,27 39,27 Z M57,27 C53.6862915,27 51,29.6862915 51,33 C51,36.3137085 53.6862915,39 57,39 C60.3137085,39 63,36.3137085 63,33 C63,29.6862915 60.3137085,27 57,27 Z" id="形状结合"></path>
                </g>
            </g>
        </g>
    </g>
</svg>